<svg width="1412" height="320" viewBox="0 0 1412 320" fill="none" xmlns="http://www.w3.org/2000/svg">
<path fill-rule="evenodd" clip-rule="evenodd" d="M189.444 26.002C189.444 40.3626 177.802 52.0041 163.442 52.0041C149.081 52.0041 137.44 40.3626 137.44 26.002C137.44 11.6415 149.081 0 163.442 0C177.802 0 189.444 11.6415 189.444 26.002ZM299.657 79.0988C299.657 93.4593 288.016 105.101 273.655 105.101C259.295 105.101 247.653 93.4593 247.653 79.0988C247.653 64.7383 259.295 53.0968 273.655 53.0968C288.016 53.0968 299.657 64.7383 299.657 79.0988ZM300.881 224.361C315.242 224.361 326.883 212.719 326.883 198.359C326.883 183.998 315.242 172.357 300.881 172.357C286.521 172.357 274.879 183.998 274.879 198.359C274.879 212.719 286.521 224.361 300.881 224.361ZM250.603 293.998C250.603 308.359 238.962 320 224.601 320C210.24 320 198.599 308.359 198.599 293.998C198.599 279.637 210.24 267.996 224.601 267.996C238.962 267.996 250.603 279.637 250.603 293.998ZM102.282 320C116.643 320 128.284 308.359 128.284 293.998C128.284 279.637 116.643 267.996 102.282 267.996C87.9216 267.996 76.2801 279.637 76.2801 293.998C76.2801 308.359 87.9216 320 102.282 320ZM52.0041 198.358C52.0041 212.719 40.3626 224.36 26.002 224.36C11.6415 224.36 0 212.719 0 198.358C0 183.998 11.6415 172.356 26.002 172.356C40.3626 172.356 52.0041 183.998 52.0041 198.358ZM53.2279 105.101C67.5884 105.101 79.2299 93.4593 79.2299 79.0988C79.2299 64.7383 67.5884 53.0968 53.2279 53.0968C38.8673 53.0968 27.2258 64.7383 27.2258 79.0988C27.2258 93.4593 38.8673 105.101 53.2279 105.101ZM209 130.666L163.442 108.728L117.884 130.666L106.631 179.96L138.161 219.488H188.723L220.253 179.96L209 130.666ZM163.42 77.2081L163.442 77.1976H163.398L163.42 77.2081ZM93.2363 111L163.42 77.2081L233.604 111L250.953 186.974L202.379 247.893H124.461L75.887 186.974L93.2363 111Z" fill="url(#paint0_radial_72_1066)"/>
<path fill-rule="evenodd" clip-rule="evenodd" d="M1131.2 103.853C1141.31 103.853 1149.5 95.6629 1149.5 85.5596C1149.5 75.4562 1141.31 67.2659 1131.2 67.2659C1121.1 67.2659 1112.91 75.4562 1112.91 85.5596C1112.91 95.6629 1121.1 103.853 1131.2 103.853ZM407.175 69.8981V249.176H434.835V171.831H511.157V146.732H434.835V94.9971H517.816V69.8981H407.175ZM563.462 244.822C573.023 250.115 584.207 252.762 597.012 252.762C608.452 252.762 617.843 250.969 625.185 247.384C632.526 243.798 638.417 239.359 642.856 234.066C647.466 228.773 650.967 223.736 653.357 218.955L631.587 207.686C628.856 213.491 624.928 218.614 619.806 223.053C614.855 227.492 607.428 229.712 597.525 229.712C586.939 229.712 578.06 226.468 570.889 219.98C563.889 213.321 560.218 204.442 559.876 193.344H656.942V183.356C656.942 170.55 654.381 159.367 649.259 149.805C644.137 140.243 636.966 132.816 627.746 127.523C618.696 122.06 608.11 119.328 595.988 119.328C583.524 119.328 572.511 122.06 562.949 127.523C553.559 132.816 546.217 140.414 540.924 150.317C535.631 160.049 532.984 171.489 532.984 184.636V187.71C532.984 200.686 535.631 212.126 540.924 222.029C546.388 231.761 553.9 239.359 563.462 244.822ZM630.051 173.111H560.132C561.498 163.55 565.254 156.122 571.401 150.829C577.719 145.366 585.829 142.634 595.732 142.634C605.635 142.634 613.66 145.366 619.806 150.829C625.953 156.122 629.368 163.55 630.051 173.111ZM735.821 252.762C725.406 252.762 715.759 250.201 706.88 245.079C698.002 239.956 690.831 232.615 685.367 223.053C680.074 213.321 677.427 201.625 677.427 187.966V184.124C677.427 170.635 680.074 159.025 685.367 149.293C690.66 139.561 697.746 132.133 706.624 127.011C715.503 121.889 725.235 119.328 735.821 119.328C744.016 119.328 750.846 120.352 756.31 122.401C761.944 124.45 766.554 127.096 770.14 130.341C773.725 133.414 776.457 136.658 778.335 140.073H782.433V69.8981H808.813V249.176H782.945V231.249H778.848C775.604 236.712 770.652 241.664 763.993 246.103C757.505 250.542 748.114 252.762 735.821 252.762ZM743.248 229.712C754.688 229.712 764.079 226.041 771.42 218.699C778.933 211.357 782.689 200.857 782.689 187.197V184.892C782.689 171.404 779.018 160.989 771.677 153.647C764.335 146.305 754.859 142.634 743.248 142.634C731.979 142.634 722.588 146.305 715.076 153.647C707.734 160.989 704.063 171.404 704.063 184.892V187.197C704.063 200.857 707.734 211.357 715.076 218.699C722.588 226.041 731.979 229.712 743.248 229.712ZM902.93 122.913V249.176H929.309V173.88C929.309 163.977 931.785 156.379 936.737 151.086C941.688 145.793 948.262 143.146 956.457 143.146C964.141 143.146 970.031 145.28 974.129 149.549C978.397 153.647 980.532 159.537 980.532 167.221V249.176H1006.91V173.88C1006.91 163.977 1009.39 156.379 1014.34 151.086C1019.29 145.793 1025.86 143.146 1034.06 143.146C1041.74 143.146 1047.63 145.28 1051.73 149.549C1056 153.647 1058.13 159.537 1058.13 167.221V249.176H1084.51V165.172C1084.51 155.439 1082.63 147.329 1078.88 140.841C1075.12 134.182 1070.09 129.231 1063.77 125.987C1057.45 122.572 1050.19 120.864 1042 120.864C1031.75 120.864 1023.81 122.828 1018.18 126.755C1012.72 130.682 1008.53 135.548 1005.63 141.353H1001.53C998.63 135.377 994.276 130.511 988.471 126.755C982.837 122.828 975.324 120.864 965.933 120.864C956.884 120.864 949.713 122.572 944.42 125.987C939.127 129.401 935.285 133.328 932.895 137.768H928.797V122.913H902.93ZM1177.81 249.176V122.913H1203.68V141.866H1207.77C1210.17 136.743 1214.43 131.963 1220.58 127.523C1226.73 123.084 1235.86 120.864 1247.98 120.864C1257.55 120.864 1266 122.999 1273.34 127.267C1280.85 131.536 1286.74 137.597 1291.01 145.451C1295.28 153.134 1297.41 162.44 1297.41 173.367V249.176H1271.03V175.416C1271.03 164.489 1268.3 156.464 1262.84 151.342C1257.38 146.049 1249.86 143.402 1240.3 143.402C1229.37 143.402 1220.58 146.988 1213.92 154.159C1207.43 161.33 1204.19 171.745 1204.19 185.405V249.176H1177.81ZM1354.48 242.261C1359.09 246.871 1365.23 249.176 1372.92 249.176H1407.75V226.895H1381.37C1376.59 226.895 1374.2 224.334 1374.2 219.211V145.195H1411.84V122.913H1374.2V81.167H1347.82V122.913H1312.99V145.195H1347.82V223.821C1347.82 231.505 1350.04 237.651 1354.48 242.261ZM1117.79 249.176V122.913H1144.17V249.176H1117.79ZM873.872 85.5596C873.872 95.6629 865.682 103.853 855.578 103.853C845.475 103.853 837.285 95.6629 837.285 85.5596C837.285 75.4562 845.475 67.2659 855.578 67.2659C865.682 67.2659 873.872 75.4562 873.872 85.5596ZM842.163 249.176V122.913H868.542V249.176H842.163Z" fill="#FAD6FF"/>
<defs>
<radialGradient id="paint0_radial_72_1066" cx="0" cy="0" r="1" gradientUnits="userSpaceOnUse" gradientTransform="translate(163.441 168.584) rotate(180) scale(182.064 182.064)">
<stop offset="0.507956" stop-color="#4AD6FF"/>
<stop offset="1" stop-color="#181884"/>
</radialGradient>
</defs>
</svg>
